<svg width="32" height="32" viewBox="0 0 32 32" fill="none" xmlns="http://www.w3.org/2000/svg">
<path d="M20.5659 12.2128C18.7623 9.73099 15.259 9.1641 12.8062 10.9555C10.2898 12.7937 9.72483 16.2643 11.5396 18.7442C13.36 21.2325 16.8306 21.8013 19.2974 20.0117C21.7998 18.1932 22.3695 14.6946 20.5659 12.2118V12.2128ZM12.593 14.8078C12.6612 14.7292 12.7539 14.6712 12.8371 14.6038C13.6977 14.0126 14.6351 13.9714 15.608 14.224C15.8895 14.2979 16.0046 14.4682 15.9503 14.6777C15.9008 14.8714 15.7417 14.9602 15.4761 14.9284C15.2936 14.9078 15.115 14.8657 14.9316 14.8433C14.3479 14.7741 13.8072 14.8873 13.3245 15.2381C13.2263 15.3101 13.1215 15.3737 13.0111 15.4242C12.838 15.4972 12.6725 15.4616 12.5593 15.311C12.4293 15.1417 12.4601 14.9612 12.593 14.8078ZM19.5519 13.2783C19.7511 13.3269 19.8737 13.4551 19.8465 13.6758C19.8241 13.8723 19.6492 14.0033 19.4022 13.964C18.7754 13.8657 18.1889 13.9247 17.6332 14.2577C17.3975 14.3961 17.1646 14.3307 17.0626 14.1539C16.9513 13.9584 17.0448 13.7516 17.4368 13.4878C18.0355 13.1707 18.7782 13.0828 19.5509 13.2783H19.5519Z" fill="#F7402A"/>
<path d="M11.9372 9.3016C11.419 8.75904 10.882 8.19682 10.3319 7.66174C9.49564 6.84788 8.50592 6.23516 7.6481 5.7431C7.52275 5.67107 7.38804 5.63833 7.27953 5.6112C7.24772 5.60372 7.21966 5.59624 7.19627 5.58969L7.12985 5.56911L7.06344 5.59249C6.84173 5.67201 6.6799 5.81981 6.62096 5.99942C6.56951 6.15751 6.60132 6.32403 6.7089 6.45686C6.82115 6.59531 6.97737 6.69728 7.12892 6.78708C8.20096 7.41945 9.06626 8.05837 9.77441 8.73752C10.1233 9.07242 10.4723 9.41947 10.81 9.7553L11.2225 10.165C11.4311 10.3718 11.6126 10.4681 11.795 10.4681C11.8483 10.4681 11.9007 10.4597 11.9503 10.4429C11.9999 10.426 12.0476 10.4008 12.0925 10.368C12.1103 10.3549 12.1271 10.3409 12.1439 10.3259C12.259 10.2212 12.3198 10.1005 12.3245 9.96765C12.3329 9.71695 12.1383 9.51302 12.0551 9.42602L11.9372 9.30254V9.3016Z" fill="#F7402A"/>
<path d="M14.8989 3.36891C14.8689 3.2735 14.8371 3.17434 14.795 3.07892L14.7492 2.97321C14.6528 2.75151 14.5537 2.52138 14.4311 2.30342C14.2759 2.02746 13.9756 1.92736 13.6874 2.05459C13.4021 2.17433 13.2777 2.43345 13.3544 2.74776C13.3694 2.80951 13.3937 2.87405 13.4274 2.94421C13.9494 4.0069 14.1552 5.17623 14.3058 6.18933C14.3694 6.61778 14.4218 7.06867 14.4676 7.46718L14.5219 7.93304C14.5434 8.11264 14.5761 8.38393 14.8755 8.50647C15.0036 8.55886 15.1421 8.56447 15.2646 8.52331C15.3086 8.50835 15.3507 8.48683 15.39 8.46064C15.3947 8.45689 15.3993 8.45409 15.404 8.45035C15.5696 8.32874 15.6575 8.11639 15.6398 7.87597C15.5322 6.38485 15.3975 4.92739 14.9363 3.49052C14.9232 3.45123 14.9101 3.41101 14.897 3.37078L14.8989 3.36891Z" fill="#F7402A"/>
<path d="M21.1833 6.2202C21.4247 5.7244 21.5958 5.20241 21.7614 4.69726L21.7727 4.66452C21.8307 4.48959 21.8877 4.31559 21.9485 4.1416C21.956 4.11915 21.971 4.08734 21.9897 4.04899C22.0692 3.87873 22.1899 3.62148 22.0224 3.43626L22.0149 3.42877C21.8278 3.24355 21.6426 3.24636 21.5332 3.24729H21.5107C21.3087 3.24729 21.1103 3.36329 20.9906 3.47181C20.8896 3.56348 20.8559 3.68883 20.8297 3.78986L20.8278 3.79828C20.8213 3.8226 20.8147 3.84693 20.8073 3.87031C20.7493 4.0387 20.6931 4.20802 20.6361 4.38388C20.5247 4.72158 20.4106 5.07051 20.2778 5.40447C19.855 6.4709 19.3133 7.50552 18.6669 8.47934C18.535 8.67766 18.4854 8.8582 18.521 9.01536C18.549 9.13884 18.6276 9.24268 18.7492 9.31564C18.8905 9.40077 19.043 9.41854 19.1898 9.36896C19.2478 9.34932 19.3058 9.31845 19.362 9.27729C19.4368 9.2221 19.5098 9.14913 19.579 9.05652C19.6239 8.99759 19.6763 8.92836 19.7193 8.85259C19.8652 8.5944 20.014 8.33902 20.1599 8.08832C20.5116 7.48401 20.8755 6.86005 21.1852 6.22207L21.1833 6.2202Z" fill="#F7402A"/>
<path d="M26.5239 7.40826C26.3658 7.31752 26.1534 7.32126 26.0075 7.35494C25.884 7.38394 25.797 7.46813 25.7278 7.53642L25.7222 7.54203C25.7044 7.55981 25.6866 7.57758 25.6689 7.59255C25.5454 7.69825 25.4228 7.8049 25.3012 7.91248L25.2872 7.92464C25.0337 8.14634 24.7727 8.37647 24.5042 8.58601C23.6539 9.25299 22.7278 9.84047 21.7521 10.3325C21.2273 10.5973 21.3517 10.9452 21.4013 11.0463C21.4714 11.1875 21.6539 11.4018 22.0842 11.2549C22.115 11.2446 22.1468 11.2315 22.1805 11.2175C22.2479 11.1885 22.319 11.1567 22.3882 11.1164C22.6146 10.9817 22.8428 10.8498 23.0711 10.7179L23.1048 10.6983C23.6716 10.3709 24.2572 10.0332 24.8092 9.66086C24.8821 9.61128 24.9542 9.56076 25.0253 9.50838C25.3695 9.2558 25.6922 8.97329 26.0047 8.69826C26.1441 8.57665 26.2825 8.45504 26.4228 8.33624C26.4425 8.3194 26.4696 8.30163 26.5005 8.28011C26.6455 8.17908 26.8653 8.0266 26.8298 7.80022L26.8279 7.78993C26.7755 7.55139 26.6305 7.46813 26.5239 7.40826Z" fill="#F7402A"/>
<path d="M6.96521 11.5028C6.02507 11.2942 4.99513 11.2231 3.81738 11.2848C3.73974 11.2886 3.66116 11.2951 3.59567 11.2998L3.54422 11.3035L3.49464 11.3129C3.1532 11.4205 2.98762 11.6178 3.00072 11.8994C3.01382 12.1819 3.20559 12.3718 3.51242 12.4083C3.6069 12.4195 3.69764 12.4177 3.78557 12.4158H3.79399C3.83983 12.4149 3.88473 12.4139 3.92963 12.4158C4.1345 12.4233 4.3403 12.4251 4.5723 12.428C5.04377 12.4336 5.53208 12.4382 5.99327 12.5019C6.66306 12.5935 7.33846 12.7367 7.99609 12.876C8.24773 12.9294 8.49937 12.9827 8.75195 13.0332C8.89975 13.0631 9.11865 13.0959 9.30293 13.0332C9.35345 13.0164 9.39929 12.992 9.43951 12.963C9.52932 12.8966 9.59293 12.8012 9.6266 12.6796C9.66402 12.5439 9.65186 12.4214 9.58919 12.3148C9.46477 12.1024 9.18694 12.0332 9.06907 12.0033C8.26831 11.8031 7.59946 11.644 6.96521 11.5037V11.5028Z" fill="#F7402A"/>
<path d="M10.5911 19.0304C10.4405 19.0145 10.3029 19.0931 10.1785 19.1633C10.0485 19.2372 9.91753 19.3101 9.7875 19.3831L9.75196 19.4027C9.32632 19.6413 8.88665 19.8873 8.4657 20.1511C7.51152 20.7498 6.83892 21.3607 6.34874 22.0726L6.33097 22.0987C6.25707 22.2054 6.18129 22.3158 6.12704 22.443C6.02039 22.6928 6.0971 22.9407 6.32536 23.0894C6.48064 23.1895 6.65838 23.2138 6.82676 23.1568C6.88663 23.1362 6.94463 23.1062 6.99889 23.066C7.00731 23.0595 7.01573 23.0529 7.02415 23.0464C7.10553 22.9809 7.16353 22.9023 7.21872 22.8275C7.24585 22.79 7.27204 22.7554 7.30011 22.7255C7.39459 22.6235 7.4872 22.5197 7.57981 22.4159L7.59197 22.4018C7.81929 22.1455 8.05503 21.8808 8.31602 21.6628C8.7033 21.3373 9.14297 21.0463 9.56861 20.7657L9.70518 20.675C10.0176 20.4682 10.3553 20.2521 10.7024 20.0791C10.8932 19.9837 11.114 19.8349 11.129 19.5243C11.1374 19.3485 11.0335 19.1866 10.8642 19.1118C10.7922 19.08 10.6958 19.0416 10.5892 19.0304H10.5911Z" fill="#F7402A"/>
<path d="M8.0279 15.3933C6.77999 15.7872 5.68737 16.1361 4.6883 16.4598C4.49559 16.5215 4.32534 16.6038 4.12328 16.7039C3.79399 16.8667 3.64245 17.1492 3.73786 17.4233C3.84077 17.7208 4.15695 17.8424 4.5433 17.7339C4.55827 17.7301 4.57323 17.7245 4.5882 17.7198C4.62936 17.7058 4.66865 17.689 4.70888 17.6721C4.72946 17.6628 4.75097 17.6544 4.77062 17.6459C5.06248 17.5337 5.29915 17.4542 5.50776 17.3849L5.53395 17.3765C5.75379 17.3026 5.98111 17.2259 6.26736 17.1165C6.41422 17.0603 6.43293 17.0538 6.49935 17.0323L8.24305 16.4392L8.34783 16.4046C8.44699 16.3728 8.54989 16.34 8.65092 16.2895C8.68272 16.2736 8.71266 16.2549 8.73979 16.2353C8.92968 16.0959 8.99984 15.8704 8.9063 15.6684C8.83053 15.5047 8.6453 15.3887 8.49563 15.3475C8.34596 15.3054 8.18225 15.3447 8.0279 15.3933Z" fill="#F7402A"/>
<path d="M20.7614 22.2961C21.2797 22.8387 21.8166 23.4009 22.3667 23.936C23.203 24.7498 24.1927 25.3626 25.0505 25.8546C25.1759 25.9267 25.3106 25.9594 25.4191 25.9865C25.4509 25.994 25.479 26.0015 25.5023 26.008L25.5688 26.0286L25.6352 26.0052C25.8569 25.9257 26.0187 25.7779 26.0777 25.5983C26.1291 25.4402 26.0973 25.2737 25.9897 25.1409C25.8775 25.0024 25.7212 24.9005 25.5697 24.8107C24.4977 24.1783 23.6324 23.5394 22.9242 22.8602C22.5753 22.5253 22.2264 22.1783 21.8887 21.8424L21.4761 21.4327C21.2675 21.226 21.086 21.1296 20.9036 21.1296C20.8503 21.1296 20.7979 21.138 20.7483 21.1549C20.6987 21.1717 20.651 21.197 20.6061 21.2297C20.5884 21.2428 20.5715 21.2568 20.5547 21.2718C20.4396 21.3766 20.3788 21.4972 20.3741 21.6301C20.3657 21.8808 20.5603 22.0847 20.6436 22.1717L20.7614 22.2952V22.2961Z" fill="#F7402A"/>
<path d="M17.5631 28.6311C17.593 28.7265 17.6248 28.8257 17.6669 28.9211L17.7127 29.0268C17.8091 29.2485 17.9083 29.4786 18.0308 29.6966C18.1861 29.9725 18.4864 30.0726 18.7745 29.9454C19.0598 29.8257 19.1842 29.5666 19.1075 29.2522C19.0926 29.1905 19.0682 29.126 19.0346 29.0558C18.5126 27.9931 18.3068 26.8238 18.1562 25.8107C18.0925 25.3822 18.0402 24.9313 17.9943 24.5328L17.9401 24.067C17.9186 23.8874 17.8858 23.6161 17.5865 23.4935C17.4583 23.4411 17.3199 23.4355 17.1973 23.4767C17.1533 23.4917 17.1112 23.5132 17.072 23.5394C17.0673 23.5431 17.0626 23.5459 17.0579 23.5497C16.8923 23.6713 16.8044 23.8836 16.8222 24.124C16.9298 25.6152 17.0645 27.0726 17.5257 28.5095C17.5388 28.5488 17.5518 28.589 17.5649 28.6292L17.5631 28.6311Z" fill="#F7402A"/>
<path d="M11.5172 24.936C11.2758 25.4318 11.1046 25.9538 10.9391 26.4589L10.9278 26.4917C10.8698 26.6666 10.8128 26.8406 10.752 27.0146C10.7445 27.0371 10.7295 27.0689 10.7108 27.1072C10.6313 27.2775 10.5106 27.5347 10.6781 27.72L10.6855 27.7274C10.8726 27.9127 11.0579 27.9098 11.1673 27.9089H11.1898C11.3918 27.9089 11.5901 27.7929 11.7099 27.6844C11.8109 27.5927 11.8446 27.4674 11.8708 27.3663L11.8727 27.3579C11.8792 27.3336 11.8857 27.3093 11.8932 27.2859C11.9512 27.1175 12.0074 26.9482 12.0644 26.7723C12.1757 26.4346 12.2899 26.0857 12.4227 25.7517C12.8455 24.6853 13.3872 23.6507 14.0336 22.6769C14.1655 22.4786 14.2151 22.298 14.1795 22.1408C14.1514 22.0174 14.0729 21.9135 13.9513 21.8406C13.81 21.7554 13.6575 21.7377 13.5106 21.7872C13.4526 21.8069 13.3946 21.8378 13.3385 21.8789C13.2637 21.9341 13.1907 22.0071 13.1215 22.0997C13.0766 22.1586 13.0242 22.2278 12.9812 22.3036C12.8352 22.5618 12.6865 22.8172 12.5406 23.0679C12.1888 23.6722 11.8249 24.2962 11.5153 24.9341L11.5172 24.936Z" fill="#F7402A"/>
<path d="M25.4284 20.1511C26.3686 20.3597 27.3985 20.4308 28.5763 20.3691C28.6539 20.3654 28.7325 20.3588 28.798 20.3541L28.8494 20.3504L28.899 20.341C29.2405 20.2335 29.406 20.0361 29.3929 19.7545C29.3798 19.472 29.1881 19.2821 28.8812 19.2456C28.7868 19.2344 28.696 19.2363 28.6081 19.2381H28.5997C28.5538 19.2391 28.5089 19.24 28.464 19.2381C28.2592 19.2306 28.0534 19.2288 27.8214 19.226C27.3499 19.2203 26.8616 19.2157 26.4004 19.1521C25.7306 19.0604 25.0552 18.9173 24.3976 18.7779C24.1459 18.7246 23.8943 18.6712 23.6417 18.6207C23.4939 18.5908 23.275 18.558 23.0907 18.6207C23.0402 18.6376 22.9944 18.6619 22.9541 18.6909C22.8643 18.7573 22.8007 18.8527 22.7671 18.9743C22.7296 19.11 22.7418 19.2325 22.8045 19.3392C22.9289 19.5515 23.2067 19.6207 23.3246 19.6507C24.1253 19.8508 24.7942 20.0099 25.4284 20.1502V20.1511Z" fill="#F7402A"/>
<path d="M23.9036 15.2446C25.1515 14.8508 26.2442 14.5019 27.2432 14.1782C27.4359 14.1165 27.6062 14.0341 27.8083 13.934C28.1375 13.7713 28.2891 13.4888 28.1937 13.2147C28.0908 12.9172 27.7746 12.7956 27.3882 12.9041C27.3733 12.9078 27.3583 12.9134 27.3433 12.9181C27.3022 12.9322 27.2629 12.949 27.2227 12.9658C27.2021 12.9752 27.1806 12.9836 27.1609 12.992C26.8691 13.1043 26.6324 13.1838 26.4238 13.253L26.3976 13.2614C26.1777 13.3353 25.9504 13.4121 25.6642 13.5215C25.5173 13.5776 25.4986 13.5842 25.4322 13.6057L23.6885 14.1988L23.5837 14.2334C23.4846 14.2652 23.3817 14.2979 23.2806 14.3484C23.2488 14.3644 23.2189 14.3831 23.1918 14.4027C23.0019 14.5421 22.9317 14.7675 23.0252 14.9696C23.101 15.1333 23.2862 15.2493 23.4359 15.2905C23.5856 15.3326 23.7493 15.2933 23.9036 15.2446Z" fill="#F7402A"/>
</svg>
